<mxfile host="app.diagrams.net" modified="2024-03-01T16:13:38.844Z" agent="Mozilla/5.0 (Windows NT 10.0; Win64; x64; rv:123.0) Gecko/20100101 Firefox/123.0" etag="sMdOK77TUE0ihfjro25d" version="23.1.4" type="device">
  <diagram name="Page-1" id="dFmc4SeiALAdxSmlRPcr">
    <mxGraphModel dx="1434" dy="706" grid="1" gridSize="10" guides="1" tooltips="1" connect="1" arrows="1" fold="1" page="1" pageScale="1" pageWidth="827" pageHeight="1169" math="0" shadow="0">
      <root>
        <mxCell id="0" />
        <mxCell id="1" parent="0" />
        <mxCell id="OYaM7oI7Gwu251D2yHhQ-25" value="" style="shape=table;startSize=0;container=1;collapsible=0;childLayout=tableLayout;fontSize=15;align=center;fontFamily=Lucida Console;strokeWidth=1;fillColor=none;" parent="1" vertex="1">
          <mxGeometry x="80" y="520" width="640" height="120" as="geometry" />
        </mxCell>
        <mxCell id="OYaM7oI7Gwu251D2yHhQ-26" value="" style="shape=tableRow;horizontal=0;startSize=0;swimlaneHead=0;swimlaneBody=0;strokeColor=inherit;top=0;left=0;bottom=0;right=0;collapsible=0;dropTarget=0;fillColor=none;points=[[0,0.5],[1,0.5]];portConstraint=eastwest;fontSize=15;fontFamily=Lucida Console;strokeWidth=2;" parent="OYaM7oI7Gwu251D2yHhQ-25" vertex="1">
          <mxGeometry width="640" height="60" as="geometry" />
        </mxCell>
        <mxCell id="OYaM7oI7Gwu251D2yHhQ-27" value="receiver" style="shape=partialRectangle;html=1;whiteSpace=wrap;connectable=0;strokeColor=inherit;overflow=hidden;fillColor=none;top=0;left=0;bottom=0;right=0;pointerEvents=1;fontSize=15;fontFamily=Lucida Console;align=center;strokeWidth=2;" parent="OYaM7oI7Gwu251D2yHhQ-26" vertex="1">
          <mxGeometry width="220" height="60" as="geometry">
            <mxRectangle width="220" height="60" as="alternateBounds" />
          </mxGeometry>
        </mxCell>
        <mxCell id="OYaM7oI7Gwu251D2yHhQ-28" value="" style="shape=partialRectangle;html=1;whiteSpace=wrap;connectable=0;strokeColor=inherit;overflow=hidden;fillColor=none;top=0;left=0;bottom=0;right=0;pointerEvents=1;fontSize=15;fontFamily=Lucida Console;align=center;strokeWidth=2;" parent="OYaM7oI7Gwu251D2yHhQ-26" vertex="1">
          <mxGeometry x="220" width="420" height="60" as="geometry">
            <mxRectangle width="420" height="60" as="alternateBounds" />
          </mxGeometry>
        </mxCell>
        <mxCell id="OYaM7oI7Gwu251D2yHhQ-30" value="" style="shape=tableRow;horizontal=0;startSize=0;swimlaneHead=0;swimlaneBody=0;strokeColor=inherit;top=0;left=0;bottom=0;right=0;collapsible=0;dropTarget=0;fillColor=none;points=[[0,0.5],[1,0.5]];portConstraint=eastwest;fontSize=15;fontFamily=Lucida Console;strokeWidth=2;" parent="OYaM7oI7Gwu251D2yHhQ-25" vertex="1">
          <mxGeometry y="60" width="640" height="60" as="geometry" />
        </mxCell>
        <mxCell id="OYaM7oI7Gwu251D2yHhQ-31" value="input(z, receiver)" style="shape=partialRectangle;html=1;whiteSpace=wrap;connectable=0;strokeColor=inherit;overflow=hidden;fillColor=none;top=0;left=0;bottom=0;right=0;pointerEvents=1;fontSize=15;fontFamily=Lucida Console;align=center;strokeWidth=2;" parent="OYaM7oI7Gwu251D2yHhQ-30" vertex="1">
          <mxGeometry width="220" height="60" as="geometry">
            <mxRectangle width="220" height="60" as="alternateBounds" />
          </mxGeometry>
        </mxCell>
        <mxCell id="OYaM7oI7Gwu251D2yHhQ-32" value="" style="shape=partialRectangle;html=1;whiteSpace=wrap;connectable=0;strokeColor=inherit;overflow=hidden;fillColor=none;top=0;left=0;bottom=0;right=0;pointerEvents=1;fontSize=15;fontFamily=Lucida Console;align=center;strokeWidth=2;" parent="OYaM7oI7Gwu251D2yHhQ-30" vertex="1">
          <mxGeometry x="220" width="420" height="60" as="geometry">
            <mxRectangle width="420" height="60" as="alternateBounds" />
          </mxGeometry>
        </mxCell>
        <mxCell id="OYaM7oI7Gwu251D2yHhQ-38" value="" style="group;fontFamily=Lucida Console;fontSize=15;strokeWidth=2;" parent="1" vertex="1" connectable="0">
          <mxGeometry x="310" y="590" width="400" height="40" as="geometry" />
        </mxCell>
        <mxCell id="OYaM7oI7Gwu251D2yHhQ-2" value="" style="endArrow=classic;html=1;rounded=0;endFill=1;fontFamily=Lucida Console;fontSize=15;strokeWidth=2;" parent="OYaM7oI7Gwu251D2yHhQ-38" edge="1">
          <mxGeometry width="50" height="50" relative="1" as="geometry">
            <mxPoint x="280" y="20" as="sourcePoint" />
            <mxPoint x="400" y="20" as="targetPoint" />
          </mxGeometry>
        </mxCell>
        <mxCell id="OYaM7oI7Gwu251D2yHhQ-16" value="" style="endArrow=none;html=1;rounded=0;endFill=0;fontFamily=Lucida Console;fontSize=15;strokeWidth=2;" parent="OYaM7oI7Gwu251D2yHhQ-38" edge="1">
          <mxGeometry width="50" height="50" relative="1" as="geometry">
            <mxPoint y="20" as="sourcePoint" />
            <mxPoint x="40" y="20" as="targetPoint" />
          </mxGeometry>
        </mxCell>
        <mxCell id="OYaM7oI7Gwu251D2yHhQ-21" value="" style="endArrow=none;html=1;rounded=0;endFill=0;fontFamily=Lucida Console;fontSize=15;strokeWidth=2;" parent="OYaM7oI7Gwu251D2yHhQ-38" edge="1">
          <mxGeometry width="50" height="50" relative="1" as="geometry">
            <mxPoint x="80" y="20" as="sourcePoint" />
            <mxPoint x="240" y="20" as="targetPoint" />
          </mxGeometry>
        </mxCell>
        <mxCell id="OYaM7oI7Gwu251D2yHhQ-20" value="" style="endArrow=none;html=1;rounded=0;endFill=0;fontFamily=Lucida Console;fontSize=15;strokeWidth=2;" parent="OYaM7oI7Gwu251D2yHhQ-38" edge="1">
          <mxGeometry width="50" height="50" relative="1" as="geometry">
            <mxPoint x="160" y="20" as="sourcePoint" />
            <mxPoint x="400" y="20" as="targetPoint" />
          </mxGeometry>
        </mxCell>
        <mxCell id="iO7W_gHu4JiM02GdUlGq-1" value="a" style="rounded=1;whiteSpace=wrap;html=1;arcSize=50;fillColor=#dae8fc;strokeColor=#6c8ebf;strokeWidth=2;fontFamily=Lucida Console;fontSize=15;" parent="OYaM7oI7Gwu251D2yHhQ-38" vertex="1">
          <mxGeometry x="70" width="50" height="40" as="geometry" />
        </mxCell>
        <mxCell id="iO7W_gHu4JiM02GdUlGq-2" value="b" style="rounded=1;whiteSpace=wrap;html=1;arcSize=50;fillColor=#d5e8d4;strokeColor=#82b366;strokeWidth=2;fontFamily=Lucida Console;fontSize=15;" parent="OYaM7oI7Gwu251D2yHhQ-38" vertex="1">
          <mxGeometry x="120" width="120" height="40" as="geometry" />
        </mxCell>
        <mxCell id="iO7W_gHu4JiM02GdUlGq-3" value="c" style="rounded=1;whiteSpace=wrap;html=1;arcSize=50;fillColor=#f8cecc;strokeColor=#b85450;strokeWidth=2;fontFamily=Lucida Console;fontSize=15;" parent="OYaM7oI7Gwu251D2yHhQ-38" vertex="1">
          <mxGeometry x="240" width="140" height="40" as="geometry" />
        </mxCell>
        <mxCell id="04bF-Qy2kUpQq0tFVfFD-1" value="z" style="rounded=1;whiteSpace=wrap;html=1;arcSize=50;fillColor=#fff2cc;strokeColor=#d6b656;strokeWidth=2;fontFamily=Lucida Console;fontSize=15;" vertex="1" parent="OYaM7oI7Gwu251D2yHhQ-38">
          <mxGeometry x="40" width="30" height="40" as="geometry" />
        </mxCell>
        <mxCell id="OYaM7oI7Gwu251D2yHhQ-39" value="" style="group;fontFamily=Lucida Console;fontSize=15;strokeWidth=2;" parent="1" vertex="1" connectable="0">
          <mxGeometry x="310" y="530" width="400" height="40" as="geometry" />
        </mxCell>
        <mxCell id="OYaM7oI7Gwu251D2yHhQ-1" value="" style="endArrow=classic;html=1;rounded=0;fontFamily=Lucida Console;fontSize=15;strokeWidth=2;" parent="OYaM7oI7Gwu251D2yHhQ-39" source="OYaM7oI7Gwu251D2yHhQ-8" edge="1">
          <mxGeometry width="50" height="50" relative="1" as="geometry">
            <mxPoint y="20" as="sourcePoint" />
            <mxPoint x="400" y="20" as="targetPoint" />
          </mxGeometry>
        </mxCell>
        <mxCell id="OYaM7oI7Gwu251D2yHhQ-6" value="" style="endArrow=none;html=1;rounded=0;endFill=0;fontFamily=Lucida Console;fontSize=15;strokeWidth=2;" parent="OYaM7oI7Gwu251D2yHhQ-39" target="OYaM7oI7Gwu251D2yHhQ-4" edge="1">
          <mxGeometry width="50" height="50" relative="1" as="geometry">
            <mxPoint y="20" as="sourcePoint" />
            <mxPoint x="400" y="20" as="targetPoint" />
          </mxGeometry>
        </mxCell>
        <mxCell id="OYaM7oI7Gwu251D2yHhQ-4" value="a" style="ellipse;whiteSpace=wrap;html=1;aspect=fixed;fillColor=#dae8fc;strokeColor=#6c8ebf;fontSize=15;align=center;fontFamily=Lucida Console;strokeWidth=2;" parent="OYaM7oI7Gwu251D2yHhQ-39" vertex="1">
          <mxGeometry x="70" width="40" height="40" as="geometry" />
        </mxCell>
        <mxCell id="OYaM7oI7Gwu251D2yHhQ-9" value="" style="endArrow=none;html=1;rounded=0;endFill=0;fontFamily=Lucida Console;fontSize=15;strokeWidth=2;" parent="OYaM7oI7Gwu251D2yHhQ-39" source="OYaM7oI7Gwu251D2yHhQ-4" target="OYaM7oI7Gwu251D2yHhQ-7" edge="1">
          <mxGeometry width="50" height="50" relative="1" as="geometry">
            <mxPoint x="80" y="20" as="sourcePoint" />
            <mxPoint x="400" y="20" as="targetPoint" />
          </mxGeometry>
        </mxCell>
        <mxCell id="OYaM7oI7Gwu251D2yHhQ-7" value="b" style="ellipse;whiteSpace=wrap;html=1;aspect=fixed;fillColor=#d5e8d4;strokeColor=#82b366;fontSize=15;fontFamily=Lucida Console;strokeWidth=2;" parent="OYaM7oI7Gwu251D2yHhQ-39" vertex="1">
          <mxGeometry x="120" width="40" height="40" as="geometry" />
        </mxCell>
        <mxCell id="OYaM7oI7Gwu251D2yHhQ-10" value="" style="endArrow=none;html=1;rounded=0;endFill=0;fontFamily=Lucida Console;fontSize=15;strokeWidth=2;" parent="OYaM7oI7Gwu251D2yHhQ-39" source="OYaM7oI7Gwu251D2yHhQ-7" target="OYaM7oI7Gwu251D2yHhQ-8" edge="1">
          <mxGeometry width="50" height="50" relative="1" as="geometry">
            <mxPoint x="160" y="20" as="sourcePoint" />
            <mxPoint x="400" y="20" as="targetPoint" />
          </mxGeometry>
        </mxCell>
        <mxCell id="OYaM7oI7Gwu251D2yHhQ-8" value="c" style="ellipse;whiteSpace=wrap;html=1;aspect=fixed;fillColor=#f8cecc;strokeColor=#b85450;fontSize=15;fontFamily=Lucida Console;strokeWidth=2;" parent="OYaM7oI7Gwu251D2yHhQ-39" vertex="1">
          <mxGeometry x="240" width="40" height="40" as="geometry" />
        </mxCell>
      </root>
    </mxGraphModel>
  </diagram>
</mxfile>
